<?xml version="1.0" encoding="utf-8"?>
<!-- Generator: Adobe Illustrator 15.0.0, SVG Export Plug-In . SVG Version: 6.00 Build 0)  -->
<!DOCTYPE svg PUBLIC "-//W3C//DTD SVG 1.1//EN" "http://www.w3.org/Graphics/SVG/1.1/DTD/svg11.dtd">
<svg version="1.1" id="Layer_1" xmlns="http://www.w3.org/2000/svg" xmlns:xlink="http://www.w3.org/1999/xlink" x="0px" y="0px"
	 width="181px" height="227px" viewBox="0 0 181 227" enable-background="new 0 0 181 227" xml:space="preserve">
<g>
	<g>
		<g>
			<g>
				<defs>
					<rect id="SVGID_1_" x="-0.908" y="0.807" width="180.625" height="227.188"/>
				</defs>
				<clipPath id="SVGID_2_">
					<use xlink:href="#SVGID_1_"  overflow="visible"/>
				</clipPath>
				<path clip-path="url(#SVGID_2_)" fill="#F8C000" d="M100.561,21.713l-6.121,5.137c-1.187-1.763-3.195-2.922-5.479-2.922
					s-4.297,1.159-5.483,2.922l-6.119-5.136c3.717-0.299,7.514-0.419,11.615-0.419C93.07,21.295,96.852,21.415,100.561,21.713
					 M155.99,47.791c4.42,7.954,7.562,16.759,12.854,24.201l0.457,1.624l-0.043,0.592l1.135,3.524
					c1.483,3.021,5.301,10.886,4.732,14.375l-0.156,0.618l-0.521,1.312l-0.175,0.356l-2.121,3.547l-1.021,0.945
					c-1.685,0.846-3.021,2.106-3.333,4.023l-1.238,1.896c-0.438,0.25-0.91,0.422-1.367,0.541c-2.041,2.619-5.657,7.562-7.275,11.451
					c3.846,8.906,5.975,18.726,5.975,29.033c0,40.498-32.828,73.325-73.327,73.325c-40.496,0-73.325-32.827-73.325-73.325
					c0-13.024,3.399-25.269,9.358-35.873c-2.134-2.215-4.877-5.021-6.672-6.855c-0.584,0.078-0.986,0.166-1.201,0.246l-2.009-0.116
					l-1.062-0.546l-1.334-2.477c-0.067-2.726-4.064-4.338-6.1-5.718l-1.06-1.669l-0.919-5.82l0.031-0.931l2.498-11.144l0.135-0.418
					c0,0,0.127-0.308,0.375-0.776c0.988-1.874,2.439-3.677,4.458-4.507c4.307-7.043,8.53-14.147,12.348-21.471
					c-6.426-9.745,1.183-19.245,9.162-24.655l0.19,0.001c-0.295-3.298-1.787-6.517-3.199-9.474l0.398-2.735l0.937-1.038l1.959-0.817
					c0,0,0.376,0.007,1.073,0.159c4.023,0.875,7.537,3.72,10.391,6.541c-0.443-1.072-0.958-2.159-1.68-3.071l-0.02-3.125
					l0.832-1.041l2.916-0.733c0,0,0.825,0.345,2.229,1.197c2.82,1.716,5.437,3.826,7.693,6.239
					c9.043-1.831,20.994-3.313,30.016-3.313c8.977,0,22.902,0.805,34.143,4.904c4.242-3.977,8.503-6.945,13.963-9.03l2.141,0.173
					l0.918,0.535l0.529,3.879c0,0-0.844,0.879-1.885,2.467l-0.365,0.574c3.199-1.331,6.648-2.291,10.018-3.099l2.688,1.1
					l0.572,0.916l-0.885,3.478c0,0-0.181,0.104-0.476,0.307c-2.707,1.864-5.197,4.966-5.768,8.265
					c3.908,2.652,8.375,7.455,11.322,11.201l0.174,0.251c0,0,0.148,0.229,0.34,0.694C157.551,41.281,157.256,45.1,155.99,47.791"/>
			</g>
		</g>
	</g>
</g>
<g>
	<g>
		<g>
			<g>
				<defs>
					<rect id="SVGID_3_" x="-0.908" y="0.807" width="180.625" height="227.188"/>
				</defs>
				<clipPath id="SVGID_4_">
					<use xlink:href="#SVGID_3_"  overflow="visible"/>
				</clipPath>
				<path clip-path="url(#SVGID_4_)" fill="#051545" d="M88.982,14.377c9.754,0,20.458,0.633,30.245,3.793l-3.453,3.597
					l-3.547-0.988l-0.353,0.094l-20.13,17.115l-0.148,0.321v8.149c-0.888,1.297-2.143,2.432-2.813,3.458
					c-0.675-1.026-1.573-2.161-2.462-3.458v-8.149l-0.149-0.321L66.04,20.873l-0.353-0.094l-1.607,0.316l-3.454-3.596
					C69.719,15.457,79.23,14.377,88.982,14.377 M88.971,18.81c-5.988,0-11.34,0.253-16.727,0.932l-0.219,0.742l12.123,10.175
					l0.695-0.306c0.092-2.192,1.898-3.941,4.113-3.941s4.021,1.749,4.112,3.941l0.69,0.306l12.125-10.175l-0.219-0.742
					C100.283,19.063,94.959,18.81,88.971,18.81 M114.125,27.045l1.298-1.055l-0.095-0.212c0,0,1.938-3.253,3.152-3.844l0.899,0.744
					c0,0-0.012,0.101,0.013,0.364c1.024-0.594,1.857-0.938,1.857-0.938s4.943-5.104,8.43-7.64c3.479-2.535,8.297-4.38,8.297-4.38
					l0.916,0.535c0,0-3.92,4.028-5.685,10.607c1.625-1.109,3.683-2.412,5.468-3.233c3.633-1.671,10.346-3.284,10.346-3.284
					l0.568,0.916c0,0-3.992,2.262-6.232,6.745c-1.188,2.38-1.406,4.163-1.35,5.312c5.29,2.975,11.938,11.414,11.938,11.414
					s1.142,1.883,0.445,5.551c-0.408,2.181-1.291,3.121-1.291,3.121s1.453,2.185,5.883,11.537
					c4.432,9.354,7.841,14.127,7.841,14.127l-0.078,1.074l0.241,1.895c0,0,2.121,4.295,4.029,8.757
					c1.906,4.461,1.644,6.647,1.644,6.647l-0.521,1.312c0,0-0.309,0.873-0.885,1.893c-0.577,1.021-1.232,1.654-1.232,1.654
					s-2.299,1.151-3.271,2.561c-1.248,1.805-1.42,3.421-1.42,3.421c-1.223,0.698-3.924,0.579-5.336,0.249
					c-1.411-0.332-4.752,0.266-4.752,0.266l-1.238-0.521l-2.189,0.156c0,0-3.379-1.787-4.371-4.974
					c-0.479-1.537-1.602-2.151-1.602-2.151c-0.521-0.494-0.96-0.899-1.342-1.233c-0.324,0.858-0.911,2.435-1.383,3.849
					c11.383,12.572,18.312,29.25,18.312,47.546c0,39.14-31.729,70.867-70.866,70.867c-39.143,0-70.871-31.73-70.871-70.867
					c0-19.283,7.701-36.768,20.195-49.544c-0.899-1.775-1.896-5.719-2.507-6.42l-0.419-0.385c-2.115,2.928-3.646,8.37-4.777,9.574
					c-1.315,1.397-3.445,0.244-3.445,0.244l-1.078,1.155c0,0-7.395-0.341-9.812,0.566l-1.062-0.546c0,0,0.284-2.635-1.85-4.254
					c-2.131-1.621-5.325-3.787-5.325-3.787s-0.886-1.947-1.063-3.368c-0.176-1.42,0.146-2.451,0.146-2.451l2.5-11.144
					c0,0,1.47-3.508,4-4.112l0.792-1.08c0,0,4.244-6.785,8.58-14.521c2.011-3.58,3.463-6.334,4.445-8.26
					c-0.885-0.978-3.287-4.17-2.66-9.438c0.765-6.424,10.291-12.906,10.291-12.906l1.297,0.916c0.105-1.609,0.089-4.034-0.625-6.287
					c-1.209-3.82-2.836-7.226-2.836-7.226l0.938-1.039c0,0,3.698,0.17,8.934,5.116c2.633,2.487,4.436,4.666,5.576,6.218l0.932,0.018
					c0.063-0.629,0.066-1.299-0.014-2.006c-0.712-6.24-3.606-9.772-3.606-9.772l0.831-1.041c0,0,2.828,1.208,6.816,4.657
					c4.483,3.877,7.506,9.207,7.506,9.207s0.887,0.583,2.025,1.626l1.047-0.833c0,0,3.534,3.965,9.305,9.448
					c4.973,4.724,11.793,15.673,13.586,18.613c1.847-2.391,7.75-9.936,11.085-13.03C104.574,34.975,114.125,27.045,114.125,27.045
					 M141.402,92.273c-0.713-0.688-0.906-1.323-0.906-1.323s-2.652-5.466-7.408-10.273c-4.758-4.81-5.066-4.224-5.066-4.224
					s-2.067,3.812-3.356,7.236c5.729,3.151,10.979,7.071,15.604,11.622C140.682,94.137,141.15,92.856,141.402,92.273 M38.938,86.939
					l0.311,0.532c0.798,1.021,2.834,3.675,3.727,5.847c4.16-3.771,8.77-7.056,13.738-9.763c-0.824-4.006-2.109-7.219-2.109-7.219
					c-2.936,1.743-6.432,0.73-6.432,0.73L38.938,86.939z"/>
			</g>
		</g>
	</g>
</g>
<g>
	<g>
		<g>
			<g>
				<defs>
					<rect id="SVGID_5_" x="-0.908" y="0.807" width="180.625" height="227.188"/>
				</defs>
				<clipPath id="SVGID_6_">
					<use xlink:href="#SVGID_5_"  overflow="visible"/>
				</clipPath>
				<path clip-path="url(#SVGID_6_)" fill="#FFFFFF" d="M25.995,145.832c0-35.662,28.908-64.57,64.569-64.57
					c35.659,0,64.567,28.908,64.567,64.57c0,35.66-28.908,64.566-64.567,64.566C54.904,210.398,25.995,181.492,25.995,145.832"/>
			</g>
		</g>
	</g>
</g>
<g>
	<g>
		<g>
			<g>
				<defs>
					<rect id="SVGID_7_" x="-0.908" y="0.807" width="180.625" height="227.188"/>
				</defs>
				<clipPath id="SVGID_8_">
					<use xlink:href="#SVGID_7_"  overflow="visible"/>
				</clipPath>
				<path clip-path="url(#SVGID_8_)" fill="#004990" d="M102.926,146.564c0-0.998,0.807-1.809,1.807-1.809
					c0.996,0,1.808,0.811,1.808,1.809c0,0.996-0.812,1.807-1.808,1.807C103.732,148.371,102.926,147.561,102.926,146.564
					 M98.297,156.047c0-0.996,0.809-1.807,1.807-1.807s1.808,0.811,1.808,1.807c0,0.998-0.81,1.807-1.808,1.807
					C99.105,157.852,98.297,157.045,98.297,156.047 M88.588,159.998c0-0.998,0.811-1.807,1.807-1.807
					c0.998,0,1.808,0.809,1.808,1.807s-0.811,1.807-1.808,1.807C89.398,161.803,88.588,160.996,88.588,159.998 M78.43,155.482
					c0-0.998,0.808-1.809,1.806-1.809c0.997,0,1.806,0.811,1.806,1.809c0,0.996-0.809,1.807-1.806,1.807
					C79.239,157.289,78.43,156.479,78.43,155.482 M74.592,146.113c0-0.998,0.809-1.809,1.807-1.809c0.996,0,1.807,0.811,1.807,1.809
					c0,0.996-0.811,1.807-1.807,1.807C75.398,147.92,74.592,147.109,74.592,146.113 M78.542,136.066
					c0-0.998,0.808-1.811,1.808-1.811c0.996,0,1.805,0.812,1.805,1.811c0,0.996-0.809,1.807-1.805,1.807
					C79.35,137.873,78.542,137.062,78.542,136.066 M82.137,145.832c0-4.656,3.773-8.428,8.428-8.428c4.652,0,8.427,3.77,8.427,8.428
					c0,4.652-3.771,8.426-8.427,8.426C85.91,154.258,82.137,150.484,82.137,145.832 M88.588,131.664
					c0-0.996,0.811-1.807,1.807-1.807c0.998,0,1.808,0.811,1.808,1.807c0,0.998-0.811,1.807-1.808,1.807
					C89.398,133.469,88.588,132.662,88.588,131.664 M42.445,145.832c0-7.686,1.801-14.947,5.004-21.391l25.624,14.812
					c-0.769,2.045-1.188,4.263-1.188,6.576c0,2.217,0.385,4.342,1.094,6.312l-25.656,14.818
					C44.198,160.584,42.445,153.412,42.445,145.832 M51.1,118.291c8.178-11.695,21.418-19.585,36.543-20.492l-0.012,29.58
					c-4.244,0.67-8.014,2.77-10.8,5.787L51.1,118.291z M94.795,97.893c14.805,1.291,27.688,9.283,35.6,20.929l-25.674,14.818
					c-2.547-2.957-6.004-5.105-9.938-6.018L94.795,97.893z M133.949,124.992c3.033,6.305,4.732,13.373,4.732,20.84
					c0,7.43-1.686,14.465-4.689,20.748l-25.696-14.854c0.614-1.854,0.95-3.836,0.95-5.896c0-2.104-0.35-4.123-0.988-6.012
					L133.949,124.992z M130.432,172.785c-7.91,11.678-20.815,19.695-35.649,20.982l0.012-29.734
					c3.959-0.916,7.438-3.092,9.985-6.078L130.432,172.785z M87.626,193.863c-15.219-0.916-28.53-8.908-36.69-20.73l25.707-14.846
					c2.805,3.133,6.651,5.311,10.996,5.996L87.626,193.863z M98.748,135.727c0-0.996,0.809-1.807,1.807-1.807
					c0.996,0,1.807,0.811,1.807,1.807c0,0.998-0.811,1.811-1.807,1.811C99.557,137.535,98.748,136.725,98.748,135.727"/>
			</g>
		</g>
	</g>
</g>
<g>
	<g>
		<g>
			<g>
				<defs>
					<rect id="SVGID_9_" x="-0.908" y="0.807" width="180.625" height="227.188"/>
				</defs>
				<clipPath id="SVGID_10_">
					<use xlink:href="#SVGID_9_"  overflow="visible"/>
				</clipPath>
				<path clip-path="url(#SVGID_10_)" fill="#FFFFFF" d="M160.923,87.945l0.987-0.408l2.572,4.12l-4.604,6.205
					c0,0-2.922-0.78-3.832-2.9c0,0,1.639-2.021,1.209-3.447l0.801-0.748l2.93,2.156c0,0,1.353-1.44,0.564-2.681
					C160.648,88.807,160.923,87.945,160.923,87.945 M114.125,27.046l1.298-1.056c0.503,1.131,3.021,6.853,7.399,17.786
					c-2.16,2.892-3.98,6.199-5.068,8.326c-0.607-2.106-1.6-5.508-2.273-7.654c-1.035-3.299-1.157-7.438-1.157-7.438l-0.884,0.421
					c0,0-0.631,5.737-0.688,9.432c-0.057,3.691,0.631,10.331,0.631,10.331s-1.964-2.248-2.824-6.478
					c-0.86-4.229-1.011-9.533-1.011-9.533l-0.866,0.213c0,0-1.521,7.742-1.869,11.083c-0.35,3.342,0.979,11.432,0.979,11.432
					s-2.763-2.979-3.301-7.274c-0.537-4.293-0.404-9.035-0.404-9.035l-1.116,0.709c0,0-1.89,6.959-2.07,10.953
					c-0.133,2.846,1.994,10.604,1.994,10.604s-3.229-5.362-4.045-8.739c-0.818-3.377-0.662-8.433-0.662-8.433l-0.904,0.735
					c0,0-0.818,5.396-1.152,8.527c-0.333,3.131,1.684,11.939,1.684,11.939s-3.224-6.842-3.737-11.45
					c-0.517-4.608,0.334-10.426,0.334-10.426s1.096-3.354,6.758-9.534C108.788,34.169,114.173,28,114.173,28L114.125,27.046z
					 M119.393,23.042c1.027-0.594,1.86-0.938,1.86-0.938c-0.104,1.468,0.675,3.889,0.675,3.889l2.264-1.838
					c1.142-3.984,6.938-7.611,6.938-7.611l0.643-0.027c0,0-1.961,3.566-3.418,7.512c-1.457,3.944-1.854,9.394-1.854,9.394
					l1.017,0.652c1.328-2.164,4.879-5.642,4.879-5.642c-0.035-0.972-0.012-1.915,0.062-2.825c1.777,0.621,7.211,2.705,11.32,5.694
					c4.896,3.561,7.437,6.832,8.379,8.21c-0.652,2.859-3.654,8.751-3.654,8.751s-0.443-1.961-2.09-6.385
					c-1.912-5.149-4.414-6.565-4.414-6.565l-0.455,0.421c0,0,1.238,3.158,1.335,5.766c0.104,2.92-0.282,5.356-0.282,5.356
					c-2.647-6.72-5.162-10.197-5.162-10.197l-0.844-0.104c0,0-0.98,3.266-1.874,6.75c-0.894,3.485-0.403,7.033-0.403,7.033
					s2.728,0.545,7.021,2.866c4.299,2.321,3.949,4.183,3.949,4.183l-1.369-0.168c-0.533-1.438-2.564-2.744-2.564-2.744l-0.955-0.012
					l-0.938,4.114l0.686,0.823l4.613,2.359c0,0,5.192,6.035,6.268,7.426c2.449,3.181,3.879,5.304,4.656,6.543
					c-2.798,1.727-5.854,4.013-8.312,6.857l2.383,4.355c5.793-8.377,12.021-12.102,17.009-12.436L167,76.4
					c0,0-1.979,2.104-5.023,3.104c-3.054,1.002-4.922,1.832-4.922,1.832l-0.084,1.152c0,0,4.607,0.984,8.773,8.047
					c0,0,0.146,3.825-1.562,5.413l1.12,0.665c0,0,4.357-4.331,6.851-3.498c0,0-0.309,0.873-0.883,1.893
					c-0.578,1.021-1.234,1.654-1.234,1.654l-0.033-1.009l-0.827-0.312c0,0-2.456,1.791-5.58,2.86
					c-3.87,1.325-6.733,1.187-6.733,1.187s-0.754,2.34-1.811,2.951l0.205,0.817l-1.236-0.521l0.603-0.932c0,0-2.269-1.48-2.617-4.97
					c-0.463-4.604-2.203-6.983-2.203-6.983l-1.682,0.909c0,0,1.258,1.999,0.012,3.011c-1.241,1.012-3.612,0.762-3.612,0.762
					c-1.418-0.117-2.472-1.182-3.101-2.163c-0.239,0.633-0.905-1.324-0.905-1.324l1.396-2.146l-10.072-12.772
					c1.975,0.44,2.498,0.422,2.498,0.422l-1.076-1.295c-3.273-0.293-9.078-3.856-12.021-8.763
					c-2.938-4.903-1.229-10.825,2.412-18.521c0.148-0.314,0.308-0.626,0.466-0.938c1.104,2.714,2.342,5.728,3.729,9.061
					c6.445,15.452,13.242,26.096,16.479,30.764c-0.261,0.414-0.515,0.832-0.759,1.252l2.602,1.146l1.6,1.064
					c0.65-1.131,0.822-1.545,1.49-2.547l-2.851-3.9c-0.313-0.393-0.663-0.846-1.048-1.364c-3.062-4.153-8.322-12.626-15.312-28.894
					c-1.584-3.688-2.916-6.928-4.037-9.778c3.812-5.748,8.777-10.047,8.777-10.047l-0.692-0.719c0,0-4.904,3.63-9.078,8.187
					C120.186,28.472,119.488,24.197,119.393,23.042 M9.614,92.434c0,0-0.884-1.946-1.063-3.366c-0.176-1.42,0.146-2.452,0.146-2.452
					l1.475-0.186c0.351-5.797,4.214-9.318,4.214-9.318s2.938-1.531,6.852-0.936c2.15,0.326,4.63,1.935,6.878,3.908
					c-0.867,1.1-3.8,4.903-4.317,6.688c-0.607,2.1,1.525,3.721,1.525,3.721l-0.84,0.513c0,0-2.975-1.529-3.117-4.486
					c-0.142-2.957,2.064-3.764,2.064-3.764l-1.268-0.021c0,0-4.718,2.66-3.936,6.052c0.781,3.391,5.234,4.84,5.234,4.84
					l-0.941,0.617c-1.281-0.973-4.657-0.82-4.657-0.82s-2.566-2.578-4.687-3.248C11.055,89.508,9.614,92.434,9.614,92.434
					 M62.525,24.009c0.289,0.201,1.016,0.732,1.893,1.536c-0.012,0.91-0.226,7.222-3.964,16.58
					c3.463,6.554,6.021,14.671,5.156,19.366c-0.627,3.4-2.291,4.984-4.658,7.465c6.146-8.289,1.642-16.763-1.976-23.391
					c-0.504,1.096-1.054,2.224-1.654,3.382c-4.465,8.606-13.018,23.485-19.903,34.388c0.269,0.428,0.522,0.879,0.765,1.316
					c0.424,0.771,0.602,1.039,0.221,1.667l0.533,0.621l0.311,0.532c0,0-1.191,1.24-1.863,2.396l-0.42-0.385l-0.601-0.812
					c-0.364,0.307-0.519,0.293-0.888,0.61c-0.51,0.44-1.086,0.194-1.67-0.374c-2.373,3.549-4.33,6.2-5.528,7.344l-1.32-1.611
					c1.874-2.078,3.638-4.58,5.003-8.252c-0.283-0.448-0.551-0.877-0.793-1.227c-0.322-0.467-0.203-1.104,0.055-1.697
					c0,0,0.213-0.265,0.574-0.617c0.17-0.164,0.373-0.349,0.602-0.535c-1.893-2.202-6.18-6.979-9.402-8.953
					c-4.257-2.606-7.628-2.032-7.628-2.032c-0.051,0.009-0.113,0.026-0.172,0.037l0.792-1.081l0.85,0.438
					c0,0,1.158-0.297,3.055-0.582c1.897-0.282,3.92,1.021,3.92,1.021c1.557-2.188,5.033-11.312,5.033-11.312l-1.058-0.018
					c0,0-0.927,1.883-2.376,4.18c-1.449,2.297-3.439,3.633-3.439,3.633l-1.16,0.086c0,0-0.123-1.479,4.521-10.053l6.911-12.746
					c0.415,2.213,0.994,3.176,0.994,3.176l0.842-0.195c0,0,0.786-5.387,2.633-8.926c0.732-1.402,2.075-2.63,3.432-3.603
					c-0.633,1.409-1.432,3.076-1.416,4.271c0.048,3.904,0.707,5.923,0.707,5.923l1.158-0.297c0,0,0.055-4.011,2.037-5.875
					c1.983-1.863,3.133-2.899,3.133-2.899l3.722,10.618c-6.439,0.099-10.527,2.454-10.527,2.454
					c-1.973,2.71-2.022,7.143-2.022,7.143l3.892-1.199l2.086-2.074l0.032,2.533l-6.074,4.011L27.48,73.969
					c0.813,0.752,1.996,1.918,3.273,3.43c1.021,1.205,2.085,2.729,2.963,4.066c0.168-0.08,0.342-0.149,0.518-0.207
					c0.214-0.069,1.117-0.092,1.318-0.082c11.373-15.446,18.031-28.401,21.93-38.297c-2.571-4.457-5.538-8.521-10.076-10.627
					l-2.221-2.298c2.599,0.517,5.295,1.266,7.388,2.341c1.953,1.004,4.188,3.628,6.259,6.984
					C61.553,31.608,62.322,26.594,62.525,24.009 M31.932,42.072c-0.228-2.134-0.178-4.421,0.625-6.117
					c1.344-2.837,5.356-5.213,7.25-6.211c-2.778-0.796-3.643-0.902-3.643-0.902s-6.913,4.471-5.001,13.842L31.932,42.072z
					 M81.264,46.723c0,0,1.53,7.91,1.957,13.017c0.457,5.469,0.176,14.038,0.176,14.038s2.137-6.494,2.295-10.83
					c0.23-6.422-3.584-16.208-3.584-16.208L81.264,46.723z M74.314,39.848c0,0,2.431,7.613,3.22,12.615
					c0.799,5.07,0.797,13.101,0.797,13.101s1.712-5.959,1.671-9.892c-0.064-6.395-4.844-15.809-4.844-15.809L74.314,39.848z
					 M70.922,38.842c0,0,1.213,5.783,1.492,9.524c0.312,4.195-0.182,10.762-0.182,10.762s1.937-5.941,1.882-9.889
					c-0.058-4.125-2.349-10.384-2.349-10.384L70.922,38.842z M66.713,31.592c0,0,0.684,5.157,0.635,8.454
					c-0.066,4.449-1.55,11.264-1.55,11.264s3.271-6.287,3.457-10.702c0.15-3.578-1.593-9.104-1.593-9.104L66.713,31.592z
					 M160.35,72.44l2.392-0.659l-5.396-12.076l-0.68,0.552c0,0,2.42,4.734,2.961,7.549C160.162,70.62,160.35,72.44,160.35,72.44
					 M86.529,29.579c0,0.874,0.709,1.583,1.66,1.582l1.121-2.617c-0.291-0.336-0.719-0.549-1.197-0.549
					C87.238,27.995,86.529,28.704,86.529,29.579 M69.239,17.5c-1.332,0.912,2.075,0.978,2.075,0.978
					c5.623-0.961,8.043-1.285,14.916-1.652c9.135-0.489,14.637,0.71,21.682,1.892l2.396-0.976
					c-7.375-1.516-14.812-2.458-23.604-2.33C80.23,15.507,70.477,16.655,69.239,17.5 M54.865,29.802l1.593,0.767
					c0,0,1.328-3.564,2.363-5.235c0,0-2.726-6.801-6.987-9.937l-0.839,0.514c0,0,4.058,3.658,4.215,7.672
					C55.365,27.595,54.865,29.802,54.865,29.802 M159.801,104.088c1.166-0.65,2.674,0.861,2.674,0.861s-3.901,4.791-6.031,9.402
					l-1.95-5.146c0,0,0.534-0.893,1.737-2.808c1.203-1.913,1.179-2.287,1.179-2.287S158.639,104.74,159.801,104.088 M23.671,101.969
					l4.326-0.242c0,0,1.657,1.677,2.646,2.513c-0.935,1.153-1.836,2.336-2.703,3.544c-1.721-1.947-4.68-4.872-4.68-4.872
					L23.671,101.969z"/>
			</g>
		</g>
	</g>
</g>
<g>
	<g>
		<g>
			<g>
				<defs>
					<rect id="SVGID_11_" x="-0.908" y="0.807" width="180.625" height="227.188"/>
				</defs>
				<clipPath id="SVGID_12_">
					<use xlink:href="#SVGID_11_"  overflow="visible"/>
				</clipPath>
				<path clip-path="url(#SVGID_12_)" fill="#004990" d="M91.673,199.717c1.522,0,2.757,1.232,2.757,2.754
					c0,1.522-1.231,2.756-2.757,2.756c-1.521,0-2.754-1.23-2.754-2.756C88.919,200.949,90.152,199.717,91.673,199.717
					 M91.673,200.17c-1.271,0-2.302,1.029-2.302,2.301c0,1.273,1.032,2.303,2.302,2.303c1.271,0,2.302-1.027,2.302-2.303
					C93.975,201.199,92.943,200.17,91.673,200.17 M92.473,204.072h0.551l-1.205-1.234c0.505-0.029,0.938-0.373,0.938-0.928
					c0-0.596-0.444-0.938-1.038-0.938h-0.895v3.1h0.393v-1.32L92.473,204.072z M91.217,201.314h0.492
					c0.408,0,0.656,0.234,0.656,0.602c0,0.336-0.207,0.598-0.809,0.598c-0.23,0-0.289,0-0.345-0.004L91.217,201.314L91.217,201.314z
					"/>
			</g>
		</g>
	</g>
</g>
<g>
	<g>
		<g>
			<g>
				<defs>
					<rect id="SVGID_13_" x="-0.908" y="0.807" width="180.625" height="227.188"/>
				</defs>
				<clipPath id="SVGID_14_">
					<use xlink:href="#SVGID_13_"  overflow="visible"/>
				</clipPath>
				<path clip-path="url(#SVGID_14_)" fill="#051545" d="M139.225,145.98c0,26.98-21.875,48.855-48.857,48.855
					S41.51,172.961,41.51,145.98c0-26.984,21.875-48.86,48.857-48.86C117.35,97.121,139.225,118.996,139.225,145.98"/>
			</g>
		</g>
	</g>
</g>
<g>
	<g>
		<g>
			<g>
				<defs>
					<rect id="SVGID_15_" x="-0.908" y="0.807" width="180.625" height="227.188"/>
				</defs>
				<clipPath id="SVGID_16_">
					<use xlink:href="#SVGID_15_"  overflow="visible"/>
				</clipPath>
				<path clip-path="url(#SVGID_16_)" fill="#F8C000" d="M68.178,112.977h4.762v8.175c0,2.797-2.114,4.162-5.344,4.162
					c-2.813,0-5.011-1.27-5.011-3.715v-0.58h4.029v0.25c0,0.549,0.249,0.914,0.715,0.914c0.683,0,0.849-0.447,0.849-1.268
					L68.178,112.977L68.178,112.977z"/>
			</g>
		</g>
	</g>
</g>
<g>
	<g>
		<g>
			<g>
				<defs>
					<rect id="SVGID_17_" x="-0.908" y="0.807" width="180.625" height="227.188"/>
				</defs>
				<clipPath id="SVGID_18_">
					<use xlink:href="#SVGID_17_"  overflow="visible"/>
				</clipPath>
				<path clip-path="url(#SVGID_18_)" fill="#F8C000" d="M80.332,112.662c4.146,0,6.209,2.583,6.209,6.327
					c0,3.745-2.062,6.325-6.209,6.325c-4.145,0-6.209-2.58-6.209-6.325S76.188,112.662,80.332,112.662 M80.332,122.184
					c0.732,0,1.282-0.416,1.282-3.193c0-2.717-0.517-3.195-1.282-3.195s-1.281,0.479-1.281,3.195
					C79.051,121.768,79.6,122.184,80.332,122.184"/>
			</g>
		</g>
	</g>
</g>
<g>
	<g>
		<g>
			<g>
				<defs>
					<rect id="SVGID_19_" x="-0.908" y="0.807" width="180.625" height="227.188"/>
				</defs>
				<clipPath id="SVGID_20_">
					<use xlink:href="#SVGID_19_"  overflow="visible"/>
				</clipPath>
				<rect x="87.809" y="112.977" clip-path="url(#SVGID_20_)" fill="#F8C000" width="4.761" height="12.021"/>
			</g>
		</g>
	</g>
</g>
<g>
	<g>
		<g>
			<g>
				<defs>
					<rect id="SVGID_21_" x="-0.908" y="0.807" width="180.625" height="227.188"/>
				</defs>
				<clipPath id="SVGID_22_">
					<use xlink:href="#SVGID_21_"  overflow="visible"/>
				</clipPath>
				<polygon clip-path="url(#SVGID_22_)" fill="#F8C000" points="94.268,112.977 99.979,112.977 102.527,120.254 102.559,120.254 
					102.559,112.977 106.422,112.977 106.422,124.998 100.712,124.998 98.165,117.674 98.131,117.674 98.131,124.998 
					94.268,124.998 				"/>
			</g>
		</g>
	</g>
</g>
<g>
	<g>
		<g>
			<g>
				<defs>
					<rect id="SVGID_23_" x="-0.908" y="0.807" width="180.625" height="227.188"/>
				</defs>
				<clipPath id="SVGID_24_">
					<use xlink:href="#SVGID_23_"  overflow="visible"/>
				</clipPath>
				<polygon clip-path="url(#SVGID_24_)" fill="#F8C000" points="110.285,116.209 107.322,116.209 107.322,112.977 118.01,112.977 
					118.01,116.209 115.047,116.209 115.047,124.998 110.285,124.998 				"/>
			</g>
		</g>
	</g>
</g>
<g>
	<g>
		<g>
			<g>
				<defs>
					<rect id="SVGID_25_" x="-0.908" y="0.807" width="180.625" height="227.188"/>
				</defs>
				<clipPath id="SVGID_26_">
					<use xlink:href="#SVGID_25_"  overflow="visible"/>
				</clipPath>
				<path clip-path="url(#SVGID_26_)" fill="#F8C000" d="M61.584,137.553c0,3.312-2.646,4.762-5.627,4.762
					c-4.212,0-6.16-2.562-6.16-6.375c-0.115-3.746,2.115-6.273,6.178-6.273c3.028,0,5.593,1.229,5.609,4.762h-4.361
					c-0.066-1.363-0.566-1.633-1.148-1.633c-1.232,0-1.35,1.268-1.35,3.197c0,1.828,0.101,3.191,1.299,3.191
					c0.617,0,1.033-0.365,1.1-1.631H61.584L61.584,137.553z"/>
			</g>
		</g>
	</g>
</g>
<g>
	<g>
		<g>
			<g>
				<defs>
					<rect id="SVGID_27_" x="-0.908" y="0.807" width="180.625" height="227.188"/>
				</defs>
				<clipPath id="SVGID_28_">
					<use xlink:href="#SVGID_27_"  overflow="visible"/>
				</clipPath>
				<path clip-path="url(#SVGID_28_)" fill="#F8C000" d="M68.628,129.662c4.146,0,6.209,2.582,6.209,6.326
					c0,3.746-2.063,6.326-6.209,6.326s-6.209-2.58-6.209-6.326C62.419,132.244,64.482,129.662,68.628,129.662 M68.628,139.184
					c0.732,0,1.282-0.416,1.282-3.193c0-2.717-0.516-3.195-1.282-3.195s-1.282,0.479-1.282,3.195
					C67.346,138.768,67.896,139.184,68.628,139.184"/>
			</g>
		</g>
	</g>
</g>
<g>
	<g>
		<g>
			<g>
				<defs>
					<rect id="SVGID_29_" x="-0.908" y="0.807" width="180.625" height="227.188"/>
				</defs>
				<clipPath id="SVGID_30_">
					<use xlink:href="#SVGID_29_"  overflow="visible"/>
				</clipPath>
				<path clip-path="url(#SVGID_30_)" fill="#F8C000" d="M87.442,137.969c0,2.896-2.081,4.346-5.71,4.346s-5.711-1.445-5.711-4.346
					v-7.99h4.762v7.791c0,0.949,0.449,1.314,0.949,1.314c0.498,0,0.949-0.365,0.949-1.314v-7.791h4.761V137.969z"/>
			</g>
		</g>
	</g>
</g>
<g>
	<g>
		<g>
			<g>
				<defs>
					<rect id="SVGID_31_" x="-0.908" y="0.807" width="180.625" height="227.188"/>
				</defs>
				<clipPath id="SVGID_32_">
					<use xlink:href="#SVGID_31_"  overflow="visible"/>
				</clipPath>
				<polygon clip-path="url(#SVGID_32_)" fill="#F8C000" points="89.059,129.977 94.768,129.977 97.316,137.254 97.35,137.254 
					97.35,129.977 101.211,129.977 101.211,142 95.501,142 92.953,134.674 92.921,134.674 92.921,142 89.059,142 				"/>
			</g>
		</g>
	</g>
</g>
<g>
	<g>
		<g>
			<g>
				<defs>
					<rect id="SVGID_33_" x="-0.908" y="0.807" width="180.625" height="227.188"/>
				</defs>
				<clipPath id="SVGID_34_">
					<use xlink:href="#SVGID_33_"  overflow="visible"/>
				</clipPath>
				<path clip-path="url(#SVGID_34_)" fill="#F8C000" d="M114.264,137.553c0,3.312-2.646,4.762-5.625,4.762
					c-4.213,0-6.16-2.562-6.16-6.375c-0.114-3.746,2.113-6.273,6.179-6.273c3.026,0,5.594,1.229,5.606,4.762h-4.359
					c-0.064-1.363-0.564-1.633-1.146-1.633c-1.229,0-1.349,1.268-1.349,3.197c0,1.828,0.1,3.191,1.299,3.191
					c0.615,0,1.031-0.365,1.101-1.631H114.264L114.264,137.553z"/>
			</g>
		</g>
	</g>
</g>
<g>
	<g>
		<g>
			<g>
				<defs>
					<rect id="SVGID_35_" x="-0.908" y="0.807" width="180.625" height="227.188"/>
				</defs>
				<clipPath id="SVGID_36_">
					<use xlink:href="#SVGID_35_"  overflow="visible"/>
				</clipPath>
				<rect x="115.531" y="129.977" clip-path="url(#SVGID_36_)" fill="#F8C000" width="4.762" height="12.021"/>
			</g>
		</g>
	</g>
</g>
<g>
	<g>
		<g>
			<g>
				<defs>
					<rect id="SVGID_37_" x="-0.908" y="0.807" width="180.625" height="227.188"/>
				</defs>
				<clipPath id="SVGID_38_">
					<use xlink:href="#SVGID_37_"  overflow="visible"/>
				</clipPath>
				<polygon clip-path="url(#SVGID_38_)" fill="#F8C000" points="121.99,129.977 126.753,129.977 126.753,138.768 131.131,138.768 
					131.131,142 121.99,142 				"/>
			</g>
		</g>
	</g>
</g>
<g>
	<g>
		<g>
			<g>
				<defs>
					<rect id="SVGID_39_" x="-0.908" y="0.807" width="180.625" height="227.188"/>
				</defs>
				<clipPath id="SVGID_40_">
					<use xlink:href="#SVGID_39_"  overflow="visible"/>
				</clipPath>
				<polygon clip-path="url(#SVGID_40_)" fill="#F8C000" points="74.688,154.086 74.688,146.246 105.544,146.246 105.544,154.086 
					90.928,184.998 80.68,184.998 95.632,154.086 				"/>
			</g>
		</g>
	</g>
</g>
<g>
	<g>
		<g>
			<g>
				<defs>
					
						<rect id="SVGID_41_" x="-109.948" y="7.906" transform="matrix(-0.0653 -0.9979 0.9979 -0.0653 -142.1553 109.8172)" width="180.603" height="227.159"/>
				</defs>
				<clipPath id="SVGID_42_">
					<use xlink:href="#SVGID_41_"  overflow="visible"/>
				</clipPath>
				
					<rect x="33.082" y="167.947" transform="matrix(0.9175 -0.3978 0.3978 0.9175 -64.0894 29.145)" clip-path="url(#SVGID_42_)" fill="#051545" width="10.214" height="2.137"/>
			</g>
		</g>
	</g>
</g>
<g>
	<g>
		<g>
			<g>
				<defs>
					<rect id="SVGID_43_" x="-0.908" y="0.807" width="180.625" height="227.188"/>
				</defs>
				<clipPath id="SVGID_44_">
					<use xlink:href="#SVGID_43_"  overflow="visible"/>
				</clipPath>
				<path clip-path="url(#SVGID_44_)" fill="#051545" d="M35.169,164.797l-0.009-0.025c-0.727-0.186-1.105-0.629-1.335-1.344
					c-0.289-0.902-0.003-1.873,0.942-2.174l5.463-1.744l0.607,1.902l-4.695,1.498c-0.606,0.193-1.045,0.453-0.851,1.061
					c0.194,0.608,0.699,0.562,1.308,0.369l4.695-1.498l0.607,1.902l-6.813,2.176l-0.608-1.904L35.169,164.797z"/>
			</g>
		</g>
	</g>
</g>
<g>
	<g>
		<g>
			<g>
				<defs>
					<rect id="SVGID_45_" x="-0.908" y="0.807" width="180.625" height="227.188"/>
				</defs>
				<clipPath id="SVGID_46_">
					<use xlink:href="#SVGID_45_"  overflow="visible"/>
				</clipPath>
				<path clip-path="url(#SVGID_46_)" fill="#051545" d="M33.152,160.518l-0.166-0.787l-1.108,0.232l-1.286-1.77l1.982-0.418
					l-0.214-1.016l1.204-0.254l0.214,1.012l3.741-0.787c0.525-0.109,0.875-0.172,0.74-0.811c-0.027-0.125-0.053-0.25-0.102-0.34
					l1.206-0.256c0.083,0.258,0.184,0.523,0.282,0.998c0.357,1.688-0.719,2.146-1.147,2.234l-4.308,0.91l0.166,0.789L33.152,160.518
					z"/>
			</g>
		</g>
	</g>
</g>
<g>
	<g>
		<g>
			<g>
				<defs>
					<rect id="SVGID_47_" x="-0.908" y="0.807" width="180.625" height="227.188"/>
				</defs>
				<clipPath id="SVGID_48_">
					<use xlink:href="#SVGID_47_"  overflow="visible"/>
				</clipPath>
				<path clip-path="url(#SVGID_48_)" fill="#051545" d="M35.781,153.223c0.844-0.092,2.107-0.258,2.014-1.129
					c-0.076-0.705-0.767-0.771-1.357-0.709l-0.219-2.012c0.776-0.057,1.438,0.129,1.926,0.561c0.486,0.416,0.816,1.098,0.918,2.021
					c0.276,2.562-1.248,3.068-3.474,3.312c-1.94,0.209-3.633,0.105-3.916-2.512c-0.29-2.676,1.408-3.156,3.697-3.334L35.781,153.223
					z M34.473,151.529c-0.688,0.072-1.678,0.15-1.574,1.096c0.098,0.916,1.166,0.785,1.771,0.719L34.473,151.529z"/>
			</g>
		</g>
	</g>
</g>
<g>
	<g>
		<g>
			<g>
				<defs>
					<rect id="SVGID_49_" x="-0.908" y="0.807" width="180.625" height="227.188"/>
				</defs>
				<clipPath id="SVGID_50_">
					<use xlink:href="#SVGID_49_"  overflow="visible"/>
				</clipPath>
				<path clip-path="url(#SVGID_50_)" fill="#051545" d="M31.462,146.109l0.921-0.002v-0.027c-0.822-0.367-1.063-1.047-1.064-1.854
					l1.785-0.004c-0.112,1.758,0.908,1.781,1.617,1.781L38.614,146l0.001,2l-7.151,0.006L31.462,146.109z"/>
			</g>
		</g>
	</g>
</g>
<g>
	<g>
		<g>
			<g>
				<defs>
					<rect id="SVGID_51_" x="-0.908" y="0.807" width="180.625" height="227.188"/>
				</defs>
				<clipPath id="SVGID_52_">
					<use xlink:href="#SVGID_51_"  overflow="visible"/>
				</clipPath>
				<path clip-path="url(#SVGID_52_)" fill="#051545" d="M32.424,140.924l0.004-0.027c-0.593-0.461-0.762-1.02-0.685-1.766
					c0.099-0.941,0.747-1.715,1.735-1.613l5.701,0.596l-0.207,1.984l-4.9-0.512c-0.633-0.064-1.137-0.004-1.204,0.631
					c-0.065,0.633,0.415,0.797,1.05,0.863l4.9,0.51l-0.207,1.986l-7.111-0.742l0.206-1.984L32.424,140.924z"/>
			</g>
		</g>
	</g>
</g>
<g>
	<g>
		<g>
			<g>
				<defs>
					<rect id="SVGID_53_" x="-0.908" y="0.807" width="180.625" height="227.188"/>
				</defs>
				<clipPath id="SVGID_54_">
					<use xlink:href="#SVGID_53_"  overflow="visible"/>
				</clipPath>
				<path clip-path="url(#SVGID_54_)" fill="#051545" d="M39.34,131.326c0.428,0.102,0.883,0.15,1.318,0.213l-0.43,1.803
					l-0.942-0.135l-0.006,0.025c0.618,0.584,0.829,1.229,0.628,2.068c-0.32,1.354-1.444,1.607-2.656,1.318
					c-2.3-0.545-1.975-2.35-1.52-4.146l-0.536-0.127c-0.593-0.142-1.038-0.158-1.206,0.543c-0.16,0.676,0.337,0.854,0.889,0.981
					l-0.451,1.899c-0.842-0.199-1.317-0.59-1.525-1.119c-0.225-0.521-0.199-1.185-0.022-1.928c0.585-2.468,1.722-2.529,2.987-2.229
					L39.34,131.326z M37.62,134.703c0.496,0.117,1.122,0.18,1.272-0.455c0.271-1.145-1.314-1.33-2.072-1.512
					C36.635,133.711,36.381,134.408,37.62,134.703"/>
			</g>
		</g>
	</g>
</g>
<g>
	<g>
		<g>
			<g>
				<defs>
					<rect id="SVGID_55_" x="-0.908" y="0.807" width="180.625" height="227.188"/>
				</defs>
				<clipPath id="SVGID_56_">
					<use xlink:href="#SVGID_55_"  overflow="visible"/>
				</clipPath>
				<path clip-path="url(#SVGID_56_)" fill="#051545" d="M34.061,128.799l0.264-0.762l-1.07-0.373l-0.188-2.176l1.912,0.662
					l0.338-0.979l1.162,0.404l-0.338,0.977l3.611,1.253c0.508,0.176,0.837,0.307,1.051-0.312c0.041-0.119,0.084-0.24,0.09-0.347
					l1.162,0.403c-0.061,0.265-0.113,0.546-0.271,0.998c-0.565,1.634-1.724,1.472-2.138,1.326l-4.159-1.438l-0.265,0.763
					L34.061,128.799z"/>
			</g>
		</g>
	</g>
</g>
<g>
	<g>
		<g>
			<g>
				<defs>
					<rect id="SVGID_57_" x="-0.908" y="0.807" width="180.625" height="227.188"/>
				</defs>
				<clipPath id="SVGID_58_">
					<use xlink:href="#SVGID_57_"  overflow="visible"/>
				</clipPath>
				<path clip-path="url(#SVGID_58_)" fill="#051545" d="M33.798,120.875l1.444,0.619l-0.785,1.834l-1.443-0.619L33.798,120.875z
					 M43.189,124.898l-0.785,1.834l-6.569-2.814l0.786-1.832L43.189,124.898z"/>
			</g>
		</g>
	</g>
</g>
<g>
	<g>
		<g>
			<g>
				<defs>
					<rect id="SVGID_59_" x="-0.908" y="0.807" width="180.625" height="227.188"/>
				</defs>
				<clipPath id="SVGID_60_">
					<use xlink:href="#SVGID_59_"  overflow="visible"/>
				</clipPath>
				<path clip-path="url(#SVGID_60_)" fill="#051545" d="M40.467,121.918c-1.71-0.945-3.035-2.002-1.761-4.305
					c1.276-2.307,2.873-1.744,4.583-0.799c1.957,1.082,3.168,2.141,1.921,4.395C43.962,123.465,42.422,123,40.467,121.918
					 M42.223,118.506c-1.3-0.719-1.99-1.02-2.401-0.275c-0.412,0.742,0.211,1.168,1.511,1.891c1.909,1.055,2.406,1.121,2.764,0.479
					C44.451,119.949,44.13,119.561,42.223,118.506"/>
			</g>
		</g>
	</g>
</g>
<g>
	<g>
		<g>
			<g>
				<defs>
					<rect id="SVGID_61_" x="-0.908" y="0.807" width="180.625" height="227.188"/>
				</defs>
				<clipPath id="SVGID_62_">
					<use xlink:href="#SVGID_61_"  overflow="visible"/>
				</clipPath>
				<path clip-path="url(#SVGID_62_)" fill="#051545" d="M43.071,112.305l0.016-0.022c-0.278-0.696-0.143-1.265,0.302-1.869
					c0.562-0.765,1.513-1.103,2.312-0.517l4.619,3.395l-1.183,1.608l-3.968-2.917c-0.514-0.377-0.981-0.578-1.358-0.065
					c-0.377,0.514-0.045,0.898,0.47,1.274l3.97,2.917l-1.181,1.606l-5.763-4.23l1.183-1.607L43.071,112.305z"/>
			</g>
		</g>
	</g>
</g>
<g>
	<g>
		<g>
			<g>
				<defs>
					<rect id="SVGID_63_" x="-0.908" y="0.807" width="180.625" height="227.188"/>
				</defs>
				<clipPath id="SVGID_64_">
					<use xlink:href="#SVGID_63_"  overflow="visible"/>
				</clipPath>
				<path clip-path="url(#SVGID_64_)" fill="#051545" d="M53.867,107.54c0.316,0.303,0.682,0.575,1.029,0.848l-1.279,1.342
					l-0.745-0.594l-0.019,0.021c0.238,0.814,0.094,1.479-0.502,2.104c-0.957,1.006-2.059,0.66-2.959-0.199
					c-1.711-1.633-0.522-3.021,0.778-4.346l-0.399-0.381c-0.439-0.419-0.816-0.66-1.315-0.139c-0.478,0.502-0.138,0.902,0.272,1.295
					l-1.349,1.413c-0.625-0.597-0.839-1.172-0.752-1.733c0.068-0.562,0.425-1.121,0.952-1.675c1.749-1.834,2.762-1.317,3.704-0.417
					L53.867,107.54z M50.68,109.586c0.368,0.353,0.879,0.721,1.327,0.25c0.812-0.85-0.463-1.812-1.026-2.35
					C50.327,108.233,49.758,108.708,50.68,109.586"/>
			</g>
		</g>
	</g>
</g>
<g>
	<g>
		<g>
			<g>
				<defs>
					
						<rect id="SVGID_65_" x="-67.81" y="-32.328" transform="matrix(-0.9544 -0.2984 0.2984 -0.9544 19.7333 165.5481)" width="180.63" height="227.192"/>
				</defs>
				<clipPath id="SVGID_66_">
					<use xlink:href="#SVGID_65_"  overflow="visible"/>
				</clipPath>
				
					<rect x="48.317" y="101.949" transform="matrix(-0.6516 -0.7586 0.7586 -0.6516 10.1449 210.5526)" clip-path="url(#SVGID_66_)" fill="#051545" width="10.218" height="1.995"/>
			</g>
		</g>
	</g>
</g>
<g>
	<g>
		<g>
			<g>
				<defs>
					<rect id="SVGID_67_" x="-0.908" y="0.807" width="180.625" height="227.188"/>
				</defs>
				<clipPath id="SVGID_68_">
					<use xlink:href="#SVGID_67_"  overflow="visible"/>
				</clipPath>
				<path clip-path="url(#SVGID_68_)" fill="#051545" d="M61.034,103.365l-5.254-8.769l3.256-1.95
					c1.397-0.837,2.79-1.128,3.91,0.743c0.604,1.008,0.542,2.035-0.337,2.824l0.015,0.025c1.408-0.598,2.25,0.038,2.97,1.238
					c1.332,2.225-0.539,3.479-1.316,3.943L61.034,103.365z M59.762,97.08l1.226-0.733c0.401-0.24,0.8-0.842,0.29-1.692
					c-0.385-0.644-1.106-0.854-1.725-0.483l-1.131,0.676L59.762,97.08z M62.059,100.917l1.021-0.61
					c0.39-0.232,1.255-0.77,0.521-1.995c-0.465-0.777-1.041-1.077-1.963-0.523l-1.068,0.642L62.059,100.917z"/>
			</g>
		</g>
	</g>
</g>
<g>
	<g>
		<g>
			<g>
				<defs>
					<rect id="SVGID_69_" x="-0.908" y="0.807" width="180.625" height="227.188"/>
				</defs>
				<clipPath id="SVGID_70_">
					<use xlink:href="#SVGID_69_"  overflow="visible"/>
				</clipPath>
				<path clip-path="url(#SVGID_70_)" fill="#051545" d="M66.977,92.039l0.371,0.841l0.024-0.011
					c0.005-0.899,0.529-1.396,1.265-1.723l0.724,1.63c-1.65,0.607-1.263,1.551-0.976,2.197l1.575,3.558l-1.823,0.808l-2.894-6.531
					L66.977,92.039z"/>
			</g>
		</g>
	</g>
</g>
<g>
	<g>
		<g>
			<g>
				<defs>
					<rect id="SVGID_71_" x="-0.908" y="0.807" width="180.625" height="227.188"/>
				</defs>
				<clipPath id="SVGID_72_">
					<use xlink:href="#SVGID_71_"  overflow="visible"/>
				</clipPath>
				<path clip-path="url(#SVGID_72_)" fill="#051545" d="M70.859,94.127c-0.598-1.859-0.838-3.535,1.67-4.341
					c2.506-0.804,3.285,0.701,3.882,2.562c0.683,2.129,0.839,3.729-1.614,4.516C72.346,97.649,71.542,96.258,70.859,94.127
					 M74.475,92.848c-0.453-1.414-0.75-2.105-1.559-1.849c-0.809,0.261-0.646,0.996-0.191,2.411
					c0.666,2.076,0.982,2.464,1.684,2.238C75.109,95.426,75.141,94.926,74.475,92.848"/>
			</g>
		</g>
	</g>
</g>
<g>
	<g>
		<g>
			<g>
				<defs>
					<rect id="SVGID_73_" x="-0.908" y="0.807" width="180.625" height="227.188"/>
				</defs>
				<clipPath id="SVGID_74_">
					<use xlink:href="#SVGID_73_"  overflow="visible"/>
				</clipPath>
				<path clip-path="url(#SVGID_74_)" fill="#051545" d="M76.352,88.813l0.791-0.168l-0.235-1.107l1.769-1.287l0.42,1.979
					l1.012-0.214l0.255,1.205l-1.011,0.213l0.795,3.74c0.11,0.527,0.17,0.877,0.808,0.741c0.125-0.026,0.249-0.053,0.339-0.103
					l0.258,1.205c-0.259,0.084-0.527,0.186-0.998,0.285c-1.688,0.358-2.148-0.717-2.24-1.146l-0.914-4.309l-0.789,0.168
					L76.352,88.813z"/>
			</g>
		</g>
	</g>
</g>
<g>
	<g>
		<g>
			<g>
				<defs>
					<rect id="SVGID_75_" x="-0.908" y="0.807" width="180.625" height="227.188"/>
				</defs>
				<clipPath id="SVGID_76_">
					<use xlink:href="#SVGID_75_"  overflow="visible"/>
				</clipPath>
				<path clip-path="url(#SVGID_76_)" fill="#051545" d="M85.652,94.493l-0.537-4.898c-0.068-0.633-0.235-1.112-0.869-1.043
					c-0.634,0.068-0.693,0.573-0.623,1.207l0.536,4.898l-1.985,0.216l-1.111-10.161l1.984-0.218l0.413,3.771l0.028-0.002
					c0.324-0.676,0.835-0.961,1.581-1.041c0.942-0.104,1.834,0.369,1.942,1.354l0.623,5.699L85.652,94.493z"/>
			</g>
		</g>
	</g>
</g>
<g>
	<g>
		<g>
			<g>
				<defs>
					<rect id="SVGID_77_" x="-0.908" y="0.807" width="180.625" height="227.188"/>
				</defs>
				<clipPath id="SVGID_78_">
					<use xlink:href="#SVGID_77_"  overflow="visible"/>
				</clipPath>
				<path clip-path="url(#SVGID_78_)" fill="#051545" d="M90.742,90.995c-0.016,0.85-0.008,2.124,0.869,2.139
					c0.707,0.012,0.859-0.664,0.873-1.259l2.021,0.034c-0.042,0.777-0.308,1.411-0.796,1.841c-0.475,0.431-1.186,0.675-2.12,0.658
					c-2.575-0.045-2.888-1.622-2.849-3.856c0.033-1.955,0.345-3.619,2.979-3.574c2.688,0.047,2.953,1.793,2.844,4.084L90.742,90.995
					z M92.588,89.909c0.014-0.693,0.059-1.686-0.893-1.7c-0.918-0.017-0.924,1.06-0.936,1.669L92.588,89.909z"/>
			</g>
		</g>
	</g>
</g>
<g>
	<g>
		<g>
			<g>
				<defs>
					<rect id="SVGID_79_" x="-0.908" y="0.807" width="180.625" height="227.188"/>
				</defs>
				<clipPath id="SVGID_80_">
					<use xlink:href="#SVGID_79_"  overflow="visible"/>
				</clipPath>
				<path clip-path="url(#SVGID_80_)" fill="#051545" d="M98.373,87.604l-0.113,0.914l0.027,0.003
					c0.468-0.771,1.172-0.925,1.973-0.823l-0.223,1.771c-1.729-0.332-1.883,0.678-1.971,1.381l-0.482,3.865l-1.98-0.248l0.89-7.099
					L98.373,87.604z"/>
			</g>
		</g>
	</g>
</g>
<g>
	<g>
		<g>
			<g>
				<defs>
					<rect id="SVGID_81_" x="-0.908" y="0.807" width="180.625" height="227.188"/>
				</defs>
				<clipPath id="SVGID_82_">
					<use xlink:href="#SVGID_81_"  overflow="visible"/>
				</clipPath>
				<path clip-path="url(#SVGID_82_)" fill="#051545" d="M103.35,95.811l1.131-4.793c0.146-0.62,0.147-1.129-0.474-1.273
					c-0.618-0.146-0.843,0.311-0.987,0.932l-1.129,4.793l-1.939-0.457l2.341-9.946l1.94,0.458l-0.867,3.691l0.025,0.006
					c0.53-0.528,1.104-0.625,1.836-0.455c0.926,0.218,1.605,0.961,1.381,1.925l-1.312,5.579L103.35,95.811z"/>
			</g>
		</g>
	</g>
</g>
<g>
	<g>
		<g>
			<g>
				<defs>
					<rect id="SVGID_83_" x="-0.908" y="0.807" width="180.625" height="227.188"/>
				</defs>
				<clipPath id="SVGID_84_">
					<use xlink:href="#SVGID_83_"  overflow="visible"/>
				</clipPath>
				<path clip-path="url(#SVGID_84_)" fill="#051545" d="M107.604,93.141c0.688-1.828,1.547-3.291,4.012-2.358
					c2.461,0.931,2.137,2.594,1.443,4.421c-0.791,2.092-1.664,3.439-4.074,2.53C106.572,96.824,106.812,95.233,107.604,93.141
					 M111.232,94.391c0.521-1.391,0.726-2.117-0.07-2.418c-0.795-0.301-1.127,0.377-1.65,1.769c-0.771,2.038-0.766,2.54-0.076,2.801
					C110.123,96.803,110.461,96.43,111.232,94.391"/>
			</g>
		</g>
	</g>
</g>
<g>
	<g>
		<g>
			<g>
				<defs>
					<rect id="SVGID_85_" x="-0.908" y="0.807" width="180.625" height="227.188"/>
				</defs>
				<clipPath id="SVGID_86_">
					<use xlink:href="#SVGID_85_"  overflow="visible"/>
				</clipPath>
				<path clip-path="url(#SVGID_86_)" fill="#051545" d="M114.279,95.756c0.92-1.725,1.955-3.065,4.279-1.826
					c2.319,1.24,1.783,2.85,0.865,4.572c-1.056,1.975-2.095,3.2-4.365,1.987C112.785,99.275,113.225,97.729,114.279,95.756
					 M117.719,97.463c0.699-1.312,0.99-2.008,0.241-2.408c-0.75-0.398-1.166,0.229-1.866,1.541c-1.023,1.924-1.084,2.422-0.436,2.77
					C116.309,99.711,116.691,99.385,117.719,97.463"/>
			</g>
		</g>
	</g>
</g>
<g>
	<g>
		<g>
			<g>
				<defs>
					<rect id="SVGID_87_" x="-0.908" y="0.807" width="180.625" height="227.188"/>
				</defs>
				<clipPath id="SVGID_88_">
					<use xlink:href="#SVGID_87_"  overflow="visible"/>
				</clipPath>
				<path clip-path="url(#SVGID_88_)" fill="#051545" d="M121.469,104.358l0.459-0.646l-0.021-0.017
					c-0.703,0.353-1.293,0.228-1.914-0.218c-1.683-1.197-0.295-3.022,0.56-4.223c0.836-1.176,2.08-3.019,3.719-1.853
					c0.588,0.419,0.867,0.879,0.852,1.612l0.021,0.017l2.176-3.056l1.625,1.158l-5.928,8.322L121.469,104.358z M123.496,101.338
					c0.83-1.164,1.416-1.963,0.748-2.438c-0.703-0.501-1.268,0.313-2.096,1.479c-1.043,1.463-1.373,2.146-0.787,2.566
					C121.916,103.338,122.455,102.801,123.496,101.338"/>
			</g>
		</g>
	</g>
</g>
<g>
	<g>
		<g>
			<g>
				<defs>
					<rect id="SVGID_89_" x="-0.908" y="0.807" width="180.625" height="227.188"/>
				</defs>
				<clipPath id="SVGID_90_">
					<use xlink:href="#SVGID_89_"  overflow="visible"/>
				</clipPath>
				<path clip-path="url(#SVGID_90_)" fill="#051545" d="M128.71,105.518c1.405-1.355,2.808-2.312,4.636-0.418
					c1.83,1.896,0.823,3.263-0.582,4.619c-1.608,1.554-2.979,2.4-4.77,0.547C126.203,108.412,127.1,107.075,128.71,105.518
					 M131.457,108.204c1.07-1.033,1.561-1.605,0.973-2.216c-0.592-0.612-1.182-0.142-2.252,0.892
					c-1.566,1.514-1.775,1.971-1.268,2.502C129.424,109.912,129.887,109.719,131.457,108.204"/>
			</g>
		</g>
	</g>
</g>
<g>
	<g>
		<g>
			<g>
				<defs>
					<rect id="SVGID_91_" x="-0.908" y="0.807" width="180.625" height="227.188"/>
				</defs>
				<clipPath id="SVGID_92_">
					<use xlink:href="#SVGID_91_"  overflow="visible"/>
				</clipPath>
				<path clip-path="url(#SVGID_92_)" fill="#051545" d="M139.74,109.997c-0.455-0.669-0.805-0.609-1.371-0.162l-0.678,0.535
					l0.58,0.732l-0.971,0.764l-0.576-0.732l-4.646,3.666l-1.235-1.568l4.646-3.665l-0.554-0.699l0.967-0.765l0.562,0.712
					c1.604-1.281,2.354-2.091,3.86-0.181c0.147,0.189,0.276,0.377,0.416,0.573L139.74,109.997z"/>
			</g>
		</g>
	</g>
</g>
<g>
	<g>
		<g>
			<g>
				<defs>
					<rect id="SVGID_93_" x="-0.908" y="0.807" width="180.625" height="227.188"/>
				</defs>
				<clipPath id="SVGID_94_">
					<use xlink:href="#SVGID_93_"  overflow="visible"/>
				</clipPath>
				<polygon clip-path="url(#SVGID_94_)" fill="#051545" points="146.641,118.842 145.158,119.672 143.994,117.598 136.561,121.768 
					135.514,119.904 142.947,115.732 141.785,113.66 143.266,112.828 				"/>
			</g>
		</g>
	</g>
</g>
<g>
	<g>
		<g>
			<g>
				<defs>
					<rect id="SVGID_95_" x="-0.908" y="0.807" width="180.625" height="227.188"/>
				</defs>
				<clipPath id="SVGID_96_">
					<use xlink:href="#SVGID_95_"  overflow="visible"/>
				</clipPath>
				<path clip-path="url(#SVGID_96_)" fill="#051545" d="M141.193,123.834c-0.783,0.332-1.944,0.855-1.604,1.664
					c0.274,0.65,0.957,0.516,1.504,0.283l0.795,1.861c-0.729,0.277-1.414,0.293-2.008,0.021c-0.587-0.259-1.099-0.812-1.464-1.67
					c-1.008-2.371,0.308-3.3,2.362-4.173c1.799-0.769,3.443-1.155,4.479,1.267c1.055,2.478-0.438,3.431-2.57,4.263L141.193,123.834z
					 M142.936,125.078c0.641-0.271,1.562-0.633,1.19-1.506c-0.36-0.85-1.346-0.414-1.905-0.176L142.936,125.078z"/>
			</g>
		</g>
	</g>
</g>
<g>
	<g>
		<g>
			<g>
				<defs>
					<rect id="SVGID_97_" x="-0.908" y="0.807" width="180.625" height="227.188"/>
				</defs>
				<clipPath id="SVGID_98_">
					<use xlink:href="#SVGID_97_"  overflow="visible"/>
				</clipPath>
				<path clip-path="url(#SVGID_98_)" fill="#051545" d="M142.768,134.484c-0.422,0.117-0.844,0.295-1.254,0.453l-0.5-1.785
					l0.895-0.338l-0.01-0.027c-0.822-0.211-1.318-0.674-1.553-1.506c-0.375-1.336,0.484-2.105,1.688-2.441
					c2.275-0.635,2.863,1.1,3.336,2.893l0.531-0.146c0.584-0.164,0.984-0.362,0.791-1.062c-0.188-0.668-0.705-0.582-1.25-0.43
					l-0.524-1.884c0.832-0.231,1.438-0.123,1.875,0.24c0.448,0.346,0.747,0.938,0.952,1.676c0.682,2.44-0.28,3.047-1.535,3.396
					L142.768,134.484z M142.639,130.699c-0.49,0.137-1.065,0.387-0.895,1.014c0.314,1.133,1.795,0.529,2.545,0.32
					C143.982,131.09,143.865,130.355,142.639,130.699"/>
			</g>
		</g>
	</g>
</g>
<g>
	<g>
		<g>
			<g>
				<defs>
					<rect id="SVGID_99_" x="-0.908" y="0.807" width="180.625" height="227.188"/>
				</defs>
				<clipPath id="SVGID_100_">
					<use xlink:href="#SVGID_99_"  overflow="visible"/>
				</clipPath>
				<path clip-path="url(#SVGID_100_)" fill="#051545" d="M148.436,137.088l0.004,0.029c0.68,0.318,0.965,0.828,1.053,1.572
					c0.078,0.701-0.192,1.305-0.721,1.689c0.674,0.396,1.021,0.926,1.111,1.738c0.106,0.938-0.357,1.836-1.344,1.945l-5.693,0.654
					l-0.228-1.979l4.894-0.562c0.633-0.072,1.109-0.24,1.039-0.875c-0.072-0.634-0.58-0.688-1.212-0.615l-4.894,0.562l-0.223-1.939
					l4.892-0.562c0.633-0.072,1.112-0.242,1.04-0.875c-0.073-0.633-0.577-0.688-1.211-0.615l-4.895,0.562l-0.229-1.981l7.101-0.813
					l0.229,1.979L148.436,137.088z"/>
			</g>
		</g>
	</g>
</g>
<g>
	<g>
		<g>
			<g>
				<defs>
					<rect id="SVGID_101_" x="-0.908" y="0.807" width="180.625" height="227.188"/>
				</defs>
				<clipPath id="SVGID_102_">
					<use xlink:href="#SVGID_101_"  overflow="visible"/>
				</clipPath>
				<path clip-path="url(#SVGID_102_)" fill="#051545" d="M144.971,147.4c-0.324-0.025-0.637-0.021-0.867,0.066
					c-0.229,0.105-0.351,0.314-0.36,0.709c-0.017,0.396,0.229,0.744,0.709,0.764c1.517,0.055,1.299-3.471,3.575-3.393
					c1.543,0.055,1.955,1.6,1.91,2.889c-0.047,1.355-0.737,2.564-2.276,2.398l0.063-1.953c0.496,0.02,0.797-0.027,0.93-0.168
					c0.132-0.121,0.166-0.291,0.175-0.504c0.017-0.438-0.263-0.688-0.74-0.705c-1.133-0.039-1.194,3.477-3.487,3.396
					c-1.246-0.043-2.146-1.099-2.09-2.752c0.062-1.739,0.538-2.89,2.53-2.703L144.971,147.4z"/>
			</g>
		</g>
	</g>
</g>
<g>
	<g>
		<g>
			<g>
				<defs>
					<rect id="SVGID_103_" x="-0.908" y="0.807" width="180.625" height="227.188"/>
				</defs>
				<clipPath id="SVGID_104_">
					<use xlink:href="#SVGID_103_"  overflow="visible"/>
				</clipPath>
				<path clip-path="url(#SVGID_104_)" fill="#051545" d="M149.605,151.855l-0.104,0.803l1.124,0.143l0.632,2.092l-2.007-0.256
					l-0.131,1.023l-1.225-0.154l0.133-1.023L144.236,154c-0.534-0.068-0.883-0.125-0.965,0.52c-0.019,0.129-0.032,0.254-0.02,0.355
					l-1.225-0.156c0.009-0.27,0-0.557,0.062-1.033c0.217-1.715,1.383-1.793,1.816-1.734l4.367,0.557l0.103-0.801L149.605,151.855z"
					/>
			</g>
		</g>
	</g>
</g>
<g>
	<g>
		<g>
			<g>
				<defs>
					<rect id="SVGID_105_" x="-0.908" y="0.807" width="180.625" height="227.188"/>
				</defs>
				<clipPath id="SVGID_106_">
					<use xlink:href="#SVGID_105_"  overflow="visible"/>
				</clipPath>
				<path clip-path="url(#SVGID_106_)" fill="#051545" d="M144.727,157.881c-0.826-0.189-2.074-0.449-2.271,0.406
					c-0.159,0.688,0.474,0.979,1.051,1.111l-0.452,1.973c-0.755-0.201-1.314-0.594-1.638-1.16c-0.319-0.555-0.412-1.301-0.202-2.211
					c0.578-2.51,2.188-2.488,4.364-1.986c1.901,0.439,3.467,1.092,2.875,3.656c-0.604,2.619-2.366,2.52-4.586,1.936L144.727,157.881
					z M145.406,159.91c0.676,0.156,1.633,0.406,1.847-0.52c0.206-0.896-0.845-1.123-1.438-1.264L145.406,159.91z"/>
			</g>
		</g>
	</g>
</g>
<g>
	<g>
		<g>
			<g>
				<defs>
					<rect id="SVGID_107_" x="-0.908" y="0.807" width="180.625" height="227.188"/>
				</defs>
				<clipPath id="SVGID_108_">
					<use xlink:href="#SVGID_107_"  overflow="visible"/>
				</clipPath>
				<path clip-path="url(#SVGID_108_)" fill="#051545" d="M146.455,166.039l-0.869-0.303l-0.01,0.021
					c0.654,0.619,0.658,1.34,0.395,2.104l-1.686-0.588c0.684-1.618-0.271-1.981-0.938-2.217l-3.681-1.276l0.655-1.886l6.754,2.351
					L146.455,166.039z"/>
			</g>
		</g>
	</g>
</g>
<g>
	<g>
		<g>
			<g>
				<defs>
					<rect id="SVGID_109_" x="-0.908" y="0.807" width="180.625" height="227.188"/>
				</defs>
				<clipPath id="SVGID_110_">
					<use xlink:href="#SVGID_109_"  overflow="visible"/>
				</clipPath>
				<path clip-path="url(#SVGID_110_)" fill="#051545" d="M140.281,168.428c-0.289-0.148-0.578-0.268-0.824-0.271
					c-0.254,0.006-0.445,0.149-0.611,0.512c-0.168,0.356-0.08,0.772,0.355,0.978c1.375,0.642,2.545-2.688,4.613-1.729
					c1.396,0.646,1.182,2.23,0.639,3.4c-0.572,1.23-1.684,2.074-3.034,1.322l0.821-1.77c0.449,0.207,0.744,0.279,0.918,0.207
					c0.17-0.062,0.268-0.205,0.355-0.398c0.186-0.395,0.027-0.734-0.406-0.938c-1.027-0.479-2.455,2.732-4.535,1.77
					c-1.131-0.525-1.549-1.844-0.854-3.346c0.733-1.582,1.619-2.449,3.386-1.508L140.281,168.428z"/>
			</g>
		</g>
	</g>
</g>
</svg>
